<?xml version="1.0" encoding="UTF-8" standalone="no"?>
<svg width="50px" height="25px" viewBox="0 0 50 25" x="0px" y="0px" preserveAspectRatio="xMinYMin meet" version="1.1" xmlns="http://www.w3.org/2000/svg" xmlns:xlink="http://www.w3.org/1999/xlink" xml:space="preserve">
<path id="logopath" stroke="none" fill="#ffffff" d="M41,6 L34,6 L34,0 L13,0 L13,9 L19,9 L19,16 L0,16 L0,25 L50,25 L50,0 L41,0 L41,6 Z M28,22 L28,3 L31,3 L31,19 L37,19 L37,9 L41,9 L41,19 L44,19 L44,3 L47,3 L47,22 L28,22 Z M3,22 L3,19 L22,19 L22,6 L16,6 L16,3 L25,3 L25,22 L3,22 Z M3,22"></path>
</svg>
